<?xml version="1.0" encoding="UTF-8"?>
<svg enable-background="new 0 0 60 60" version="1.1" viewBox="0 0 60 60" xml:space="preserve" xmlns="http://www.w3.org/2000/svg">
<style type="text/css">
	.st0{opacity:0.15;fill-rule:evenodd;clip-rule:evenodd;fill:#32B66F;}
	.st1{fill:#32B66F;}
</style>
	<path class="st0" d="M30,60c26.6-7.2,30-29.5,30-36.9C60,15.8,57.7,8,51.7,0C47.2,1.8,37.3,2.5,30,0C22.7,2.5,12.8,1.8,8.3,0   C2.3,8,0,15.8,0,23.2C0,30.5,3.4,52.8,30,60z"/>
		<path class="st1" d="m51.7 0c-0.1 0-0.1 0 0 0-0.1 0-0.1 0 0 0-0.1 0-0.1 0 0 0-0.1 0-0.1 0 0 0h-0.1c-0.5 0.2-1.1 0.4-1.8 0.6s0 0 0 0c-0.5 0.1-1.1 0.3-1.7 0.4l-0.1 1c1.6-0.3 2.9-0.7 4-1.1l-0.3-0.9zm-13.8 1.5l-0.1 1c1 0.1 2 0.1 3 0.1h1.1v-1h-0.5s0 0 0 0h-0.1c-1.7 0-2.6 0-3.4-0.1zm-7.9-1.5s-0.1 0 0 0c-0.1 0-0.1 0 0 0-0.1 0-0.1 0 0 0-0.1 0-0.1 0 0 0-0.1 0-0.1 0 0 0-0.1 0-0.1 0 0 0h-0.1-0.1c-0.1 0-0.1 0-0.2 0.1-0.1 0-0.2 0-0.2 0.1h-0.1c-0.1 0-0.2 0-0.2 0.1l0.3 1c-0.4 0.1 0.1-0.1 0.6-0.2 0.6 0.2 1.1 0.4 1.7 0.5l0.2-1c-0.1 0-0.3-0.1-0.4-0.1-1.4-0.5-1.4-0.5-1.5-0.5 0.1 0 0.1 0 0 0 0.1 0 0.1 0 0 0 0.1 0 0.1 0 0 0 0.1 0 0.1 0 0 0 0.1 0 0.1 0 0 0 0.1 0 0.1 0 0 0zm-7.8 1.5h-0.1c-0.8 0.1-1.6 0.1-2.4 0.1h-0.7v1h0.9c1.1 0 2.1 0 3.2-0.1l-0.9-1zm-13.8-1.5l-0.3 1c1.1 0.4 2.5 0.8 4 1.1l0.2-1c-0.2 0-0.4-0.1-0.6-0.1-0.8-0.2-1.5-0.4-2.2-0.6s-0.9-0.3-1.1-0.4zm-3.3 4.9c-0.5 0.7-0.8 1.4-1.2 2.1-0.3 0.7-0.5 1.1-0.7 1.4l0.9 0.4c0.5-1.2 1.1-2.3 1.8-3.5l-0.8-0.4zm-3.9 9.2c0 0.1 0 0.1-0.1 0.2-0.3 1.1-0.5 2.2-0.7 3.4l1 0.1c0.2-1.3 0.5-2.5 0.8-3.8l-1 0.1zm-0.2 9.8h-1v0.5s0 0 0 0 0 0 0 0 0 0 0 0 0 0 0 0 0 0 0 0c0 0.4 0.1 0.9 0.1 1.4v0.1 0.1c0 0.4 0.1 0.9 0.2 1.3l1-0.1c-0.1-0.7-0.2-2-0.3-3.3zm1.6 9.6l-1 0.3c0.3 0.9 0.6 1.9 1 2.8 0.1 0.1 0.1 0.3 0.2 0.4v0.1 0.1 0.1l1.2-0.1c-0.5-1.2-1-2.4-1.4-3.7zm4 8.9l-0.9 0.5c0 0.1 0.1 0.1 0.1 0.2v0.1c2.1 2.8 2.2 2.9 2.3 3l0.8-0.6c-0.8-1-1.6-2.1-2.3-3.2zm6.2 7.4l-0.7 0.7c0.1 0.1 0.3 0.3 0.5 0.4l0.1 0.1c0.3 0.2 0.6 0.5 0.9 0.7l0.1 0.1 0.1 0.1c0.1 0 0.1 0.1 0.2 0.1 0.1 0.1 0.2 0.1 0.3 0.2l0.6-0.8c-0.1 0.1-1.1-0.7-2.1-1.6zm8 5.6l-0.5 0.9c0.1 0 0.1 0.1 0.2 0.1 0 0 0.1 0 0.1 0.1 0 0 0.1 0 0.1 0.1h0.1c1 0.5 2 1 3.1 1.4l0.4-0.9c-1.2-0.6-2.4-1.1-3.5-1.7zm12.3 2.6c-1 0.3-2.1 0.7-3.1 1h-0.1v0.1h-0.1l0.1 0.2-0.2-0.3 0.1 0.2-0.2 0.6c0.1 0 0.1 0 0.2 0.1 1.1-0.3 2.2-0.6 3.2-1l0.1-0.9zm8.8-4.2c-1.1 0.7-2.2 1.3-3.4 1.9l0.4 0.9c0.1 0 0.1-0.1 0.2-0.1h0.1 0.1c0.8-0.4 1.5-0.8 2.2-1.3h0.1l0.3-1.4zm7.5-6.2c-0.9 0.9-1.8 1.9-2.8 2.7l0.7 0.8h0.1l0.1-0.1c0.9-0.8 1.8-1.7 2.5-2.5l-0.6-0.9zm5.5-8c-0.6 1.2-1.2 2.3-1.9 3.4l0.8 0.5c0.7-1.1 1.4-2.3 2-3.4l-0.9-0.5zm3.2-9.1c-0.3 1.3-0.6 2.5-1 3.8l1 0.3c0.3-0.8 0.5-1.6 0.7-2.4v-0.1c0.1-0.3 0.2-0.7 0.2-1l-0.9-0.6zm1.8-9.7l-1 0.1c0.1 0.8 0.1 1.5 0.1 2.3v1.5l1 0.1v-1.2s0 0 0 0 0 0 0 0 0 0 0 0 0 0 0 0 0 0 0 0 0 0 0 0 0 0 0 0 0 0 0 0 0 0 0 0c0-2.3-0.1-2.5-0.1-2.8zm-2.1-9.8l-0.9 0.3c0.5 1.2 0.8 2.5 1.1 3.7l1-0.2c-0.3-1.2-0.6-2.3-1.1-3.5 0-0.2 0-0.2-0.1-0.3 0.1 0.1 0.1 0.1 0 0 0.1 0.1 0.1 0.1 0 0 0.1 0.1 0.1 0.1 0 0v0 0 0 0 0 0zm-4.6-8.8l-0.8 0.6c0.7 1.1 1.4 2.2 2 3.3l0.9-0.5c-0.1-0.2-0.2-0.4-0.4-0.7s0 0 0 0v-0.1c-0.9-1.5-1.3-2.1-1.7-2.6z"/>
</svg>
